<?xml version="1.0" encoding="UTF-8" standalone="no"?>
<svg
   xmlns:dc="http://purl.org/dc/elements/1.1/"
   xmlns:cc="http://creativecommons.org/ns#"
   xmlns:rdf="http://www.w3.org/1999/02/22-rdf-syntax-ns#"
   xmlns:svg="http://www.w3.org/2000/svg"
   xmlns="http://www.w3.org/2000/svg"
   xmlns:sodipodi="http://sodipodi.sourceforge.net/DTD/sodipodi-0.dtd"
   xmlns:inkscape="http://www.inkscape.org/namespaces/inkscape"
   height="24"
   viewBox="0 0 24 24"
   width="24"
   version="1.1"
   id="svg4534"
   sodipodi:docname="sync.svg"
   inkscape:version="0.92.4 (5da689c313, 2019-01-14)">
  <metadata
     id="metadata4540">
    <rdf:RDF>
      <cc:Work
         rdf:about="">
        <dc:format>image/svg+xml</dc:format>
        <dc:type
           rdf:resource="http://purl.org/dc/dcmitype/StillImage" />
      </cc:Work>
    </rdf:RDF>
  </metadata>
  <defs
     id="defs4538" />
  <sodipodi:namedview
     pagecolor="#ffffff"
     bordercolor="#666666"
     borderopacity="1"
     objecttolerance="10"
     gridtolerance="10"
     guidetolerance="10"
     inkscape:pageopacity="0"
     inkscape:pageshadow="2"
     inkscape:window-width="1920"
     inkscape:window-height="1137"
     id="namedview4536"
     showgrid="false"
     inkscape:zoom="19.583333"
     inkscape:cx="15.295463"
     inkscape:cy="7.4284756"
     inkscape:window-x="-8"
     inkscape:window-y="-8"
     inkscape:window-maximized="1"
     inkscape:current-layer="svg4534" />
  <path
     d="m 24.01,0 h -24 v 24 h 24 V 0 Z"
     id="path4530"
     inkscape:connector-curvature="0"
     style="fill:none" />
  <path
     d="M 12.02,4 V 1 l 4,4 -4,4 V 6 c -3.31,0 -6,2.69 -6,6 0,1.01 0.25,1.97 0.7,2.8 L 5.26,16.26 C 4.48,15.03 4.02,13.57 4.02,12 c 0,-4.42 3.58,-8 8,-8 z m 0,14 c 3.31,0 6,-2.69 6,-6 0,-1.01 -0.25,-1.97 -0.7,-2.8 l 1.46,-1.46 c 0.78,1.23 1.24,2.69 1.24,4.26 0,4.42 -3.58,8 -8,8 v 3 l -4,-4 4,-4 z"
     id="path4532"
     inkscape:connector-curvature="0" />
</svg>
